Coordinates
nRows=222
nColumns=2
inDegrees=yes
endheader
time	ankle_angle_r	
2.59476	 -0.394339	
2.62802	 -0.388120	
2.66129	 -0.384905	
2.69456	 -0.382927	
2.72782	 -0.382380	
2.76109	 -0.384773	
2.79435	 -0.388764	
2.82762	 -0.394390	
2.86089	 -0.403260	
2.89415	 -0.414686	
2.92742	 -0.424380	
2.96069	 -0.425436	
2.99395	 -0.416058	
3.02722	 -0.403329	
3.06048	 -0.395697	
3.09375	 -0.398201	
3.12702	 -0.408844	
3.16028	 -0.416980	
3.19355	 -0.417198	
3.22681	 -0.417146	
3.26008	 -0.423010	
3.29335	 -0.430672	
3.32661	 -0.432998	
3.35988	 -0.428165	
3.39315	 -0.422314	
3.42641	 -0.421369	
3.45968	 -0.422415	
3.49294	 -0.420702	
3.52621	 -0.416180	
3.55948	 -0.410901	
3.59274	 -0.408558	
3.62601	 -0.410628	
3.65927	 -0.413962	
3.69254	 -0.416918	
3.72581	 -0.419888	
3.75907	 -0.422493	
3.79234	 -0.424932	
3.8256	 -0.426480	
3.85887	 -0.425819	
3.89214	 -0.424942	
3.9254	 -0.425176	
3.95867	 -0.423498	
3.99194	 -0.419537	
4.0252	 -0.417529	
4.05847	 -0.418753	
4.09173	 -0.420695	
4.125	 -0.421244	
4.15827	 -0.420690	
4.19153	 -0.422540	
4.2248	 -0.427552	
4.25806	 -0.430448	
4.29133	 -0.428660	
4.3246	 -0.425173	
4.35786	 -0.422713	
4.39113	 -0.421960	
4.4244	 -0.421195	
4.45766	 -0.418863	
4.49093	 -0.418300	
4.52419	 -0.421837	
4.55746	 -0.425275	
4.59073	 -0.426597	
4.62399	 -0.428760	
4.65726	 -0.431763	
4.69052	 -0.433594	
4.72379	 -0.433495	
4.75706	 -0.430707	
4.79032	 -0.427707	
4.82359	 -0.428566	
4.85685	 -0.433991	
4.89012	 -0.445624	
4.92339	 -0.462998	
4.95665	 -0.476330	
4.98992	 -0.479071	
5.02319	 -0.477611	
5.05645	 -0.479028	
5.08972	 -0.483888	
5.12298	 -0.489662	
5.15625	 -0.491779	
5.18952	 -0.489224	
5.22278	 -0.485943	
5.25605	 -0.482010	
5.28931	 -0.474145	
5.32258	 -0.461545	
5.35585	 -0.446401	
5.38911	 -0.434008	
5.42238	 -0.426869	
5.45565	 -0.422211	
5.48891	 -0.421295	
5.52218	 -0.426797	
5.55544	 -0.433426	
5.58871	 -0.435158	
5.62198	 -0.432701	
5.65524	 -0.429593	
5.68851	 -0.429673	
5.72177	 -0.434229	
5.75504	 -0.437892	
5.78831	 -0.435315	
5.82157	 -0.428962	
5.85484	 -0.424196	
5.8881	 -0.423146	
5.92137	 -0.423819	
5.95464	 -0.424538	
5.9879	 -0.428377	
6.02117	 -0.435698	
6.05444	 -0.440811	
6.0877	 -0.440473	
6.12097	 -0.434780	
6.15423	 -0.425815	
6.1875	 -0.419276	
6.22077	 -0.419343	
6.25403	 -0.424440	
6.2873	 -0.428785	
6.32056	 -0.427137	
6.35383	 -0.422560	
6.3871	 -0.423813	
6.42036	 -0.430848	
6.45363	 -0.434458	
6.4869	 -0.430407	
6.52016	 -0.421514	
6.55343	 -0.412667	
6.58669	 -0.410152	
6.61996	 -0.415447	
6.65323	 -0.422626	
6.68649	 -0.425910	
6.71976	 -0.423195	
6.75302	 -0.416767	
6.78629	 -0.411882	
6.81956	 -0.410090	
6.85282	 -0.408623	
6.88609	 -0.405247	
6.91935	 -0.400465	
6.95262	 -0.399391	
6.98589	 -0.406256	
7.01915	 -0.415000	
7.05242	 -0.418185	
7.08569	 -0.417073	
7.11895	 -0.412199	
7.15222	 -0.402996	
7.18548	 -0.394908	
7.21875	 -0.389136	
7.25202	 -0.380841	
7.28528	 -0.372966	
7.31855	 -0.373337	
7.35181	 -0.381980	
7.38508	 -0.390870	
7.41835	 -0.392704	
7.45161	 -0.388215	
7.48488	 -0.383593	
7.51815	 -0.382830	
7.55141	 -0.385758	
7.58468	 -0.389601	
7.61794	 -0.391184	
7.65121	 -0.390216	
7.68448	 -0.387683	
7.71774	 -0.382302	
7.75101	 -0.375848	
7.78427	 -0.374458	
7.81754	 -0.377722	
7.85081	 -0.379758	
7.88407	 -0.379640	
7.91734	 -0.378839	
7.9506	 -0.377753	
7.98387	 -0.377453	
8.01714	 -0.377128	
8.0504	 -0.376157	
8.08367	 -0.377879	
8.11694	 -0.383034	
8.1502	 -0.387329	
8.18347	 -0.388507	
8.21673	 -0.386811	
8.25	 -0.383517	
8.28327	 -0.382609	
8.31653	 -0.384833	
8.3498	 -0.386181	
8.38306	 -0.386278	
8.41633	 -0.386248	
8.4496	 -0.384783	
8.48286	 -0.383865	
8.51613	 -0.386366	
8.5494	 -0.390527	
8.58266	 -0.394122	
8.61593	 -0.396300	
8.64919	 -0.397104	
8.68246	 -0.398458	
8.71573	 -0.399359	
8.74899	 -0.396085	
8.78226	 -0.390746	
8.81552	 -0.390655	
8.84879	 -0.399890	
8.88206	 -0.414806	
8.91532	 -0.426970	
8.94859	 -0.430805	
8.98185	 -0.427432	
9.01512	 -0.422410	
9.04839	 -0.421074	
9.08165	 -0.424083	
9.11492	 -0.428321	
9.14819	 -0.432015	
9.18145	 -0.434186	
9.21472	 -0.433090	
9.24798	 -0.430684	
9.28125	 -0.430585	
9.31452	 -0.430870	
9.34778	 -0.427617	
9.38105	 -0.420723	
9.41431	 -0.412630	
9.44758	 -0.406920	
9.48085	 -0.405257	
9.51411	 -0.405741	
9.54738	 -0.407696	
9.58065	 -0.411218	
9.61391	 -0.412994	
9.64718	 -0.410892	
9.68044	 -0.407343	
9.71371	 -0.405283	
9.74698	 -0.405995	
9.78024	 -0.407460	
9.81351	 -0.405686	
9.84677	 -0.399570	
9.88004	 -0.389064	
9.91331	 -0.374272	
9.94657	 -0.357632	
